<?xml version="1.0" encoding="UTF-8"?>
<!DOCTYPE svg PUBLIC "-//W3C//DTD SVG 1.1//EN" "http://www.w3.org/Graphics/SVG/1.1/DTD/svg11.dtd">
<!-- Creator: CorelDRAW X8 -->
<svg xmlns="http://www.w3.org/2000/svg" xml:space="preserve" width="94.1916mm" height="18.5208mm" version="1.1" style="shape-rendering:geometricPrecision; text-rendering:geometricPrecision; image-rendering:optimizeQuality; fill-rule:evenodd; clip-rule:evenodd"
viewBox="0 0 9419 1852"
 xmlns:xlink="http://www.w3.org/1999/xlink">
 <defs>
  <style type="text/css">
   <![CDATA[
    .fil0 {fill:#332C2B;fill-rule:nonzero}
   ]]>
  </style>
    <clipPath id="id0">
     <rect x="203" y="198" width="952" height="1455"/>
    </clipPath>
 </defs>
 <g id="圖層_x0020_1">
  <metadata id="CorelCorpID_0Corel-Layer"/>
  <g id="_2601027751344">
   <g style="clip-path:url(#id0)">
    <image x="203" y="198" width="952" height="1455" xlink:href="fvexpress-web-logo_Images\fvexpress-web-logo_ImgID1.png"/>
   </g>
   <path class="fil0" d="M1802 670l0 -82 -385 0 0 602 91 0 0 -254 251 0 0 -83 -251 0 0 -183 294 0zm186 520l0 -429 -86 0 0 429 86 0zm3 -514l0 -91 -91 0 0 91 91 0zm303 514l0 -73 -38 0c-35,0 -47,-17 -47,-50l0 -479 -86 0 0 484c0,63 36,118 118,118l53 0zm416 -189l0 -38c0,-122 -67,-207 -182,-207 -110,0 -182,80 -182,219 0,164 85,220 193,220 75,0 117,-22 161,-66l-55 -52c-31,30 -56,44 -105,44 -70,0 -109,-47 -109,-120l279 0zm-86 -60l-193 0c1,-27 3,-39 11,-59 14,-32 45,-54 86,-54 40,0 71,22 84,54 9,20 11,32 12,59zm808 -353l-97 0 -138 438 -139 -438 -95 0 198 602 71 0 200 -602zm159 602l0 -429 -86 0 0 429 86 0zm3 -514l0 -91 -92 0 0 91 92 0zm476 325l0 -38c0,-122 -67,-207 -182,-207 -110,0 -182,80 -182,219 0,164 86,220 193,220 76,0 117,-22 161,-66l-55 -52c-30,30 -56,44 -104,44 -70,0 -109,-47 -109,-120l278 0zm-85 -60l-193 0c1,-27 2,-39 11,-59 13,-32 45,-54 85,-54 41,0 71,22 85,54 8,20 11,32 12,59zm747 -180l-93 0 -83 302 -99 -302 -67 0 -99 302 -83 -302 -92 0 133 429 75 0 99 -299 101 299 74 0 134 -429zm410 240l0 -38c0,-122 -67,-207 -182,-207 -110,0 -182,80 -182,219 0,164 86,220 193,220 76,0 117,-22 161,-66l-55 -52c-30,30 -56,44 -104,44 -70,0 -109,-47 -109,-120l278 0zm-85 -60l-193 0c1,-27 2,-39 11,-59 13,-32 45,-54 85,-54 41,0 71,22 85,54 8,20 11,32 12,59zm501 -144c-30,-30 -61,-41 -102,-41 -49,0 -93,21 -115,52l0 -47 -84 0 0 429 86 0 0 -260c0,-60 39,-97 85,-97 30,0 45,9 65,29l65 -65zm669 393l0 -82 -294 0 0 -181 251 0 0 -81 -251 0 0 -176 294 0 0 -82 -385 0 0 602 385 0zm454 0l-147 -219 141 -210 -104 0 -84 140 -85 -140 -104 0 141 210 -147 219 104 0 91 -146 90 146 104 0zm438 -215c0,-65 -5,-138 -48,-181 -24,-24 -62,-38 -105,-38 -47,0 -81,12 -113,51l0 -46 -85 0 0 603 86 0 0 -218c32,38 67,49 113,49 43,0 80,-14 104,-38 43,-43 48,-116 48,-182zm-86 0c0,77 -11,143 -89,143 -78,0 -90,-66 -90,-143 0,-76 12,-142 90,-142 78,0 89,66 89,142zm504 -178c-29,-30 -60,-41 -102,-41 -48,0 -92,21 -114,52l0 -47 -85 0 0 429 86 0 0 -260c0,-60 39,-97 86,-97 30,0 45,9 64,29l65 -65zm387 204l0 -38c0,-122 -67,-207 -182,-207 -111,0 -182,80 -182,219 0,164 85,220 193,220 75,0 116,-22 160,-66l-55 -52c-30,30 -56,44 -104,44 -70,0 -109,-47 -109,-120l279 0zm-86 -60l-193 0c1,-27 3,-39 11,-59 14,-32 45,-54 86,-54 40,0 71,22 84,54 9,20 11,32 12,59zm517 118c0,-76 -47,-114 -127,-121l-68 -6c-46,-4 -59,-24 -59,-49 0,-32 26,-55 77,-55 41,0 79,8 106,31l54 -55c-39,-34 -94,-48 -159,-48 -89,0 -161,47 -161,131 0,76 46,112 127,119l68 6c42,3 58,22 58,51 0,40 -42,59 -94,59 -43,0 -89,-9 -124,-45l-57 57c51,50 110,61 181,61 102,0 178,-46 178,-136zm418 0c0,-76 -48,-114 -128,-121l-68 -6c-46,-4 -59,-24 -59,-49 0,-32 26,-55 78,-55 40,0 79,8 106,31l54 -55c-40,-34 -95,-48 -159,-48 -90,0 -162,47 -162,131 0,76 47,112 127,119l69 6c41,3 57,22 57,51 0,40 -41,59 -94,59 -42,0 -89,-9 -123,-45l-57 57c51,50 110,61 180,61 103,0 179,-46 179,-136zm204 -540l0 -31 -158 0 0 31 62 0 0 195 34 0 0 -195 62 0zm239 195l0 -226 -34 0 -65 141 -66 -141 -34 0 0 226 34 0 0 -151 53 110 26 0 52 -110 0 151 34 0z"/>
  </g>
 </g>
</svg>
