<?xml version="1.0" encoding="UTF-8"?>
<!DOCTYPE svg PUBLIC "-//W3C//DTD SVG 1.1//EN" "http://www.w3.org/Graphics/SVG/1.1/DTD/svg11.dtd">
<!-- Creator: CorelDRAW X8 -->
<svg xmlns="http://www.w3.org/2000/svg" xml:space="preserve" width="50.2708mm" height="7.1436mm" version="1.1" style="shape-rendering:geometricPrecision; text-rendering:geometricPrecision; image-rendering:optimizeQuality; fill-rule:evenodd; clip-rule:evenodd"
viewBox="0 0 5027 714"
 xmlns:xlink="http://www.w3.org/1999/xlink">
 <defs>
  <style type="text/css">
   <![CDATA[
    .fil0 {fill:#FEFEFE;fill-rule:nonzero}
   ]]>
  </style>
 </defs>
 <g id="圖層_x0020_1">
  <metadata id="CorelCorpID_0Corel-Layer"/>
  <path class="fil0" d="M821 316c0,-58 3,-117 -41,-160 -25,-25 -62,-38 -103,-38l-142 0 0 402 142 0c41,0 78,-12 103,-38 44,-43 41,-108 41,-166zm-61 0c0,56 0,99 -21,122 -17,19 -40,27 -69,27l-74 0 0 -292 74 0c29,0 52,8 69,27 21,23 21,61 21,116zm432 -76c0,-70 -50,-122 -128,-122l-153 0 0 402 61 0 0 -158 92 0c78,0 128,-52 128,-122zm-60 0c0,42 -29,67 -72,67l-88 0 0 -134 88 0c43,0 72,25 72,67zm567 -122l-64 0 -70 287 -81 -287 -49 0 -81 287 -70 -287 -64 0 105 402 53 0 81 -282 82 282 53 0 105 -402zm270 545l0 -609 37 0 0 609 -37 0zm582 -428l-240 0 0 -28 70 0c-4,-16 -12,-38 -25,-66l16 -15 -48 0 0 -27 100 0c-7,-12 -15,-24 -22,-36l26 -12c7,10 16,26 29,48l84 0 0 27 -46 0 19 13c-10,28 -19,51 -25,68l62 0 0 28zm-62 -109l-110 0c15,32 25,59 32,81l46 0c14,-30 25,-57 32,-81zm313 354c-3,21 -8,37 -17,46 -9,10 -23,14 -42,14l-129 0c-13,0 -22,-4 -29,-13 -7,-8 -10,-18 -10,-30l0 -262 170 0 0 -48 -171 0 0 -132 29 0 0 34 192 0 0 27 -192 0 0 44 171 0 0 103 -171 0 0 37 177 0 0 25 -177 0 0 42 177 0 0 26 -177 0 0 43 178 0 0 27 -178 0 0 36c0,4 2,8 6,11 3,4 7,6 12,6l119 0c9,0 16,-3 22,-8 6,-5 9,-17 12,-36l28 8zm-279 32c0,24 -15,36 -44,36l-31 0 -10 -27 44 0c3,0 5,-1 8,-4 3,-2 5,-5 5,-8l0 -80c-47,21 -84,36 -111,45l-15 -18c-5,30 -15,61 -32,95l-25 -15c14,-26 23,-51 28,-77 5,-26 7,-59 7,-101l0 -85 176 0 0 239zm-28 -110l0 -101 -119 0 0 29c36,11 69,24 99,39l-13 25c-18,-12 -47,-24 -87,-36 -1,7 -1,21 -1,41 -1,20 -2,37 -4,51 30,-10 72,-26 125,-48zm872 43c-8,66 -23,100 -45,100 -33,0 -49,-58 -49,-174l0 -277 -320 0 0 195c0,68 -5,121 -15,159 -10,39 -24,72 -40,99l-23 -19c34,-62 51,-143 51,-242l0 -219 374 0 0 304c0,40 2,74 7,102 5,28 9,42 13,42 2,0 6,-10 11,-29 5,-19 8,-39 10,-59l26 18zm-117 -84l-221 0 0 32 209 0c1,23 0,51 -4,83 -3,33 -10,52 -20,59 -11,7 -25,11 -43,11 -7,0 -15,-1 -23,-2l-8 -28c16,2 29,2 39,2 5,0 10,-1 17,-5 6,-3 10,-17 13,-41 3,-24 4,-42 3,-55l-211 0 0 -229 81 0c3,-7 7,-19 13,-35l-114 0 0 -25 267 0 0 25 -123 0c-4,11 -9,23 -14,35l112 0 0 123 -194 0 0 25 221 0 0 25zm-55 -123l0 -26 -166 0 0 26 166 0zm0 49l0 -25 -166 0 0 25 166 0zm-8 198l-26 8c-3,-20 -10,-37 -20,-54l27 -5c8,15 14,32 19,51zm-171 -39c-10,29 -25,57 -44,86l-24 -14c19,-27 34,-55 44,-83l24 11zm114 59l-26 5c-1,-21 -6,-43 -13,-64l23 -4c8,16 14,38 16,63zm-63 13l-26 4c0,-27 -2,-51 -8,-71l26 -3c6,20 9,44 8,70zm865 -8l-11 30 -208 0c-61,0 -106,-17 -134,-52 -35,20 -74,41 -119,61l-19 -26c107,-49 191,-99 253,-151 61,-52 117,-117 167,-196l-392 0 0 -31 216 0c-10,-26 -24,-53 -44,-79l32 -12c21,34 36,65 45,91l180 0 0 31c-78,127 -175,226 -293,296 22,26 59,38 109,38l218 0zm275 -438c-57,56 -111,97 -162,124l-22 -22c44,-22 97,-62 160,-121l24 19zm252 103l-22 23c-37,-40 -89,-80 -153,-120l20 -23c62,38 113,78 155,120zm33 137l-17 27c-63,-23 -112,-45 -145,-68 -34,-23 -63,-51 -87,-83 -59,61 -136,109 -231,145l-17 -26c105,-36 187,-90 246,-162l35 7c-5,6 -8,10 -12,14 51,64 126,113 228,146zm-80 237l-31 0 0 -39 -274 0 0 39 -31 0 0 -219 336 0 0 219zm-31 -68l0 -121 -274 0 0 121 274 0z"/>
 </g>
</svg>
